<?xml version="1.0" encoding="UTF-8"?>
<!DOCTYPE svg PUBLIC "-//W3C//DTD SVG 1.1//EN" "http://www.w3.org/Graphics/SVG/1.1/DTD/svg11.dtd">
<!-- Creator: CorelDRAW 2017 -->
<svg xmlns="http://www.w3.org/2000/svg" xml:space="preserve" width="560px" height="220px" version="1.1" style="shape-rendering:geometricPrecision; text-rendering:geometricPrecision; image-rendering:optimizeQuality; fill-rule:evenodd; clip-rule:evenodd"
viewBox="0 0 560 219.999"
 xmlns:xlink="http://www.w3.org/1999/xlink">
 <defs>
  <style type="text/css">
   <![CDATA[
    .str0 {stroke:black;stroke-miterlimit:22.9256}
    .str2 {stroke:#F5AF19;stroke-width:0.288;stroke-miterlimit:22.9256}
    .str1 {stroke:#FFDB00;stroke-width:0.288;stroke-miterlimit:22.9256}
    .fil0 {fill:#133048}
    .fil2 {fill:#3167B1}
    .fil4 {fill:#86BA40}
    .fil1 {fill:#E73039}
    .fil3 {fill:#F5AF19}
    .fil5 {fill:#FDFDFE}
    .fil6 {fill:#FFDB00}
    .fil7 {fill:#FFDB00}
   ]]>
  </style>
 </defs>
 <g id="Capa_x0020_1">
  <metadata id="CorelCorpID_0Corel-Layer"/>
  <rect class="fil0 str0" x="1.219" y="3.403" width="556.255" height="213.12" rx="46.545" ry="50"/>
  <path class="fil1" d="M66.168 75.725c10.508,-6.961 19.742,-13.786 33.964,-10.898 7.296,1.482 14.937,6.465 20.829,13.931l-65.459 43.362c-8.424,-15.345 -3.682,-36.891 10.666,-46.395zm89.49 3.853l-12.389 -18.702c-0.199,-0.09 -0.586,-0.477 -0.549,-0.36 0.037,0.12 -0.428,-0.284 -0.546,-0.378 -0.12,-0.096 -0.391,-0.29 -0.539,-0.412 -0.151,-0.127 -0.364,-0.305 -0.531,-0.451 -17.99,-15.66 -34.065,-22.549 -60.15,-13.441 -7.986,2.788 -17.576,7.681 -24.007,13.068 -12.854,10.769 -23.936,18.515 -29.5,37.598 -10.302,35.336 26.466,102.2 87.595,75.788 22.936,-9.91 46.808,-31.042 50.512,-53.969 0.946,-5.855 0.683,-16.521 -3.72,-23.167l-23.738 15.724c9.136,24.557 -31.356,58.79 -61.861,37.909 -4.195,-2.871 -6.54,-5.911 -10.493,-9.645l89.916 -59.562z"/>
  <path class="fil2" d="M179.102 110.921c12.44,-0.891 28.59,-3.879 28.084,13.239 -0.446,15.071 -15.602,12.128 -28.463,11.696l0.379 -24.935zm-0.254 -38.722c8.829,-0.085 18.321,-2.247 24.062,4.756 3.889,21.611 -5.739,21.321 -24.288,19.757l0.226 -24.513zm-18.577 78.712c12.175,1.68 48.971,2.391 58.217,-4.916 7.35,-5.809 7.484,-15.547 7.013,-24.589 -0.623,-11.959 -5.788,-13.427 -15.298,-17.569 6.941,-7.465 11.502,-3.679 12.002,-17.928 0.309,-8.791 0.087,-17.129 -7.599,-22.072 -9.778,-6.289 -42.876,-5.903 -54.328,-3.585l-0.007 90.659z"/>
  <path class="fil3" d="M250.726 111.206c-3.778,-21.399 24.325,-24.841 21.818,0.072l-21.818 -0.072zm36.237 36.174c-0.073,-4.452 -0.422,-8.583 -2.895,-11.929 -14.529,2.693 -34.787,8.307 -33.582,-12.464l37.512 -0.542c8.193,-53.804 -46.652,-46.355 -53.208,-24.584 -3.653,12.132 -3.464,39.071 6.484,47.504 10.486,8.889 33.931,7.655 45.689,2.015z"/>
  <path class="fil4" d="M339.65 97.036c5.052,-1.421 0.81,2.345 5.011,-3.096l1.003 -7.936c-9.893,-6.352 -43.904,-7.672 -47.037,10.075 -5.65,32.003 21.551,21.536 32.108,30.909 2.624,17.5 -19.01,10.387 -29.381,8.81 -2.121,4.502 -2.678,8.032 -2.094,12.866 11.492,2.872 26.078,4.892 37.485,0.556 11.479,-4.363 12.46,-19.803 8.431,-29.685 -5.65,-13.857 -24.086,-7.654 -29.605,-12.927 -4.465,-4.265 -1.864,-9.941 4.515,-10.892 5.914,-0.882 13.601,0.533 19.564,1.32z"/>
  <path class="fil5" d="M357.383 68.286c-2.066,14.967 -0.38,43.786 -0.406,60.038 -0.015,8.686 -0.644,18.102 8.497,21.616 7.786,2.992 20.486,2.503 27.623,-1.064l-1.488 -10.956c-6.051,-1.744 -8.675,1.461 -15.259,-1.566 -3.113,-4.957 -2.415,-32.267 -1.222,-39.059l18.345 -0.35 0.898 -13.259 -19.533 -0.167 -0.295 -18.33 -17.16 3.097z"/>
  <g id="_1737416580272">
   <path class="fil6" d="M507.761 58.493l14.426 62.984 -91.426 20.875 -25.223 -27.431 10.826 -35.265 91.397 -21.163zm-115.144 60.478c12.553,11.656 22.056,24.484 35.516,36.427l108.387 -25.18 -19.992 -85.793c-25.351,4.162 -55.383,12.662 -81.186,18.709 -32.016,7.504 -26.93,3.616 -31.481,17.882 -3.01,9.432 -10.352,29.334 -11.244,37.955z"/>
   <path class="fil6" d="M418.649 108.025c-2.676,4.476 -2.044,1.794 -0.743,6.498l5.787 2.046c5.015,-5.533 2.257,-10.957 -5.044,-8.544z"/>
  </g>
  <g id="_1737416543920">
   <path class="fil7" d="M466.687 123.412c0.53,-0.595 3.748,-3.443 4.642,-4.277 0.576,-0.537 0.569,-0.645 1.465,-0.868 0.692,-0.173 1.381,-0.358 2.073,-0.532 1.365,-0.343 2.728,-0.694 4.103,-1.052l0.911 3.792 -13.194 2.937zm10.387 -30.739c0.27,0.145 0.064,0.022 0.399,0.064 0.164,0.645 -0.116,0.107 -0.425,0.586l0.343 1.224 -0.45 -0.002c-0.185,-0.297 -0.042,-0.202 -0.184,-0.258l-1.447 8.048 -0.422 0.142c-0.098,0.048 -0.131,0.095 -0.285,0.114 -0.39,0.047 -0.247,-0.011 -0.349,-0.063l-0.854 0.149 0.004 0.237 -0.762 -0.053c-0.45,0.409 -0.727,0.358 -1.403,0.541l-0.053 -0.353 -0.558 0.098 0.195 0.268c-0.013,0.014 -0.031,0.032 -0.042,0.039l-0.171 0.096c-0.808,0.312 -1.052,0.166 -1.474,-0.14l-0.491 0.134 -0.188 0.098 0.127 0.384 -0.433 0.051 -0.234 -0.457 -0.281 0.091 -0.338 0.129c0.027,0.059 0.079,0.141 0.09,0.233 0.051,0.417 0.041,0.081 -0.061,0.261 -0.479,-0.001 -0.127,-0.086 -0.467,-0.538l-0.509 0.136 -0.227 0.114c0.263,0.047 0.154,0.02 0.399,0.171 0.125,0.077 0.203,0.133 0.307,0.234 -0.833,0.306 -0.641,-0.245 -1.429,-0.367 0.084,0.294 0.149,0.36 0.064,0.601l-0.318 0.126 -0.155 -0.707 -1.467 0.254c0.646,0.844 1.01,-0.23 1.272,0.422 -0.2,0.205 -0.719,0.251 -1.056,0.305 -0.042,0.249 -0.628,-0.537 -0.701,-0.638l-0.074 -0.006c-0.054,0.626 0.038,0.869 -0.775,1.051 -0.721,0.161 -0.976,-0.018 -1.082,-0.727l-0.688 0.116 0.424 0.572c0.366,0.045 0.188,-0.138 0.364,0.191 -0.215,0.203 -0.438,0.189 -0.765,0.224 -0.222,-0.253 -0.41,-0.449 -0.451,-0.847 -0.306,0.11 -0.168,0.074 -0.532,0.08l0.167 0.118c0.83,0.754 -0.964,1.371 -1.31,1.036 0.119,-0.353 0.337,-0.221 1.049,-0.429 -0.173,-0.806 -0.704,0.062 -1.302,-0.539 -0.905,0.155 -4.53,0.656 -5.095,0.924l-0.32 0.138c0.111,0.303 0.345,1.016 0.242,1.29 -0.361,0.063 -0.114,0.156 -0.315,-0.142 -0.032,-0.049 -0.131,-0.319 -0.158,-0.415 -0.133,-0.47 -0.046,-0.406 -0.318,-0.778l-0.264 0.098 -0.443 0.164 0.371 1.362 -0.467 0.108 -0.417 -1.523c-0.31,0.04 -0.314,0.014 -0.562,0.162l-0.773 0.267c0.119,0.361 0.086,0.173 0.774,0.227 0.851,0.067 0.884,0.807 0.177,1.04 -1.026,0.34 -0.893,0.236 -1.01,0.086 0.069,-0.344 0.277,-0.174 0.845,-0.382 0.024,-0.009 0.046,-0.019 0.067,-0.028l0.113 -0.067c0.005,-0.025 0.036,-0.021 0.052,-0.036 -0.164,-0.244 -0.186,-0.22 -0.522,-0.25 -0.236,-0.021 -0.434,-0.011 -0.686,0.013 -0.209,-0.389 -0.296,-0.2 -0.167,-0.688l-0.49 0.09c0.234,0.252 0.378,0.4 0.358,0.813l-1.348 0.326c0.412,0.932 1.057,-0.29 1.4,0.384 -0.271,0.262 -0.439,0.095 -0.849,0.296 -0.15,0.073 -0.116,0.06 -0.187,0.139 3.981,-0.672 8.237,-1.15 12.249,-1.68 2.035,-0.269 4.066,-0.581 6.094,-0.844 0.42,-0.054 0.349,-0.069 0.603,0.138l2.99 2.476c0.178,0.138 0.097,0.126 0.25,0.141 0.405,-0.108 0.328,-0.21 0.834,-0.254 0.331,-0.028 0.581,-0.085 0.924,-0.179 0.035,-0.302 -0.114,-0.118 -0.029,-0.484l0.354 -0.07 0.161 0.446c0.472,-0.131 0.417,-0.199 0.644,0.155l-0.473 0.228 0.284 1.031c0.408,0.15 0.293,-0.238 0.514,0.215 -0.162,0.165 -0.362,0.15 -0.538,0.149 -0.657,-0.002 -0.759,-1.072 -0.826,-1.33 -0.368,0.069 -1.162,0.098 -1.495,0.366 0.091,0.201 -0.056,-0.018 0.084,0.135 0.067,0.073 0.128,0.108 0.176,0.144 1.153,-0.362 1.38,0.49 1.113,0.699 -0.007,0.005 -0.03,0.022 -0.036,0.027 -0.349,0.26 0.208,-0.193 -0.07,0.04 0.099,0.247 2.14,1.852 2.52,2.166 0.378,0.311 2.37,2.053 2.628,2.126 0.222,0.04 0.433,0.074 0.595,0.191 0.242,0.176 0.126,0.204 0.303,0.526 0.158,0.344 0.663,0.586 0.929,0.927 -1.388,0.354 -2.854,0.651 -4.255,0.964 -2.071,0.462 -2.36,0.32 -3.834,1.366 -1.867,1.326 -3.696,2.653 -5.564,4.03 -0.755,0.556 -0.641,0.524 -1.669,0.739 -2.304,0.481 -14.609,2.917 -14.864,3.173 -0.231,0.322 -0.108,0.665 -0.027,1.146 0.248,1.464 0.712,0.844 3.396,0.371l1.552 -0.406c0.01,-0.02 0.008,-0.074 0.015,-0.063 0.007,0.011 0.011,-0.049 0.013,-0.063l0.027 -0.352c0.509,-0.191 0.31,0.047 0.584,0.318 0.822,-0.134 1.403,-0.455 2.06,-0.332 0.402,0.075 0.251,0.066 0.499,0.419l0.526 0.085c-0.158,-0.265 -0.277,-0.35 -0.465,-0.509 -0.161,-0.089 -0.12,-0.005 -0.038,-0.182l1.877 -0.357 -0.208 -0.785c0.109,-0.036 0.17,-0.131 0.387,0.014 0.019,0.013 0.066,0.062 0.081,0.081 0.109,0.136 0.174,0.453 0.256,0.651l0.617 -0.133c-0.124,-0.396 0.172,-0.129 0.608,-0.286 0.331,-0.12 0.04,-0.964 0.678,-0.984 0.36,-0.01 0.193,0.045 0.303,0.158 -0.252,0.44 -0.418,0.038 -0.348,0.533 0.145,0.04 0.145,0.011 0.286,0.033 0.178,0.028 0.106,0.017 0.3,0.075l0.19 -0.159c0.401,-0.208 -0.031,-0.01 0.235,-0.032 0.307,-0.026 0.155,-0.133 0.583,-0.205l0.171 0.218c0.483,-0.117 1.119,-0.175 1.527,-0.405 0.243,-0.125 0.275,-0.091 0.461,-0.179 0.185,-0.088 0.271,-0.388 1.355,-0.465l0.123 0.302 0.383 -0.089c-0.108,-0.325 -0.299,-0.807 -0.201,-1.076l0.238 -0.068c0.085,0.086 0.04,0.019 0.118,0.166 0.014,0.026 0.071,0.157 0.083,0.19 0.064,0.163 0.078,0.245 0.148,0.415 0.517,-0.478 0.746,-0.301 1.361,-0.056 0.02,0.008 0.052,0.02 0.077,0.032 0.686,-0.164 1.478,-0.23 2.113,-0.519 0.689,-0.392 2.129,-0.452 2.932,-0.667 0.025,-0.018 0.165,-0.438 0.7,-0.616 0.441,-0.147 0.691,-0.055 1.137,-0.194 0.175,-0.335 -0.05,-0.091 0.052,-0.483 0.519,-0.155 0.289,-0.048 0.555,0.183 0.384,0.335 0.34,-0.136 0.58,0.291l-0.466 0.264 0.69 -0.245c0,0 0.381,-0.886 1.512,-0.412 0.74,0.31 0.263,-0.536 1.483,-0.651 0.334,-0.032 0.247,-0.067 0.379,0.179l-0.454 0.204c-0.421,0.146 -0.368,0.16 -0.448,0.285l1.318 -0.302 -0.353 -1.257c0.348,-0.004 0.404,-0.037 0.523,0.333 0.092,0.284 0.155,0.638 0.133,0.848l0.408 -0.091c0.103,-0.87 0.509,-0.594 0.827,-0.705 0.456,-0.16 -0.174,-0.978 0.962,-0.995 0.074,0.605 0.028,0.201 -0.075,0.344 -0.139,0.194 -0.162,0.004 -0.205,0.227 -0.094,0.496 0.094,-0.063 0.469,0.277 -0.085,0.456 -0.078,0.037 -0.397,0.349l0.708 -0.139c-0.117,-0.333 -0.1,-0.306 -0.046,-0.479 0.378,0.107 0.091,0.166 0.476,-0.026 0.326,-0.162 0.306,-0.24 0.487,0.084 -0.067,0.163 0.036,0.032 -0.286,0.238l-0.189 0.117c0.383,-0.116 0.435,-0.031 0.633,-0.319 0.258,-0.377 0.619,-0.656 1.16,-0.541 0.417,0.088 0.13,0.17 0.564,0.317 0.26,-0.194 0.066,-0.03 0.25,-0.342 0.109,-0.186 0.081,-0.19 0.291,-0.296 0.066,-0.033 0.468,-0.155 0.543,-0.167 0.368,-0.061 0.29,-0.113 0.466,0.167 -0.087,0.091 -0.004,0.038 -0.169,0.112 -0.121,0.054 -0.178,0.06 -0.302,0.1 -0.238,0.078 -0.277,0.042 -0.403,0.213l1.301 -0.361c0.155,0.646 0.045,0.067 -0.077,0.359 0.003,0.334 0.012,0.179 0.143,0.22 0.04,-0.464 -0.157,-1.019 -0.289,-1.474 -0.734,-0.046 -2.105,0.179 -2.887,0.297 -0.769,0.116 -2.391,0.509 -3.042,0.509l-0.907 -3.829 4.673 -1.157c-0.411,-0.137 -1.552,0.358 -1.703,0.193 -0.592,0.225 -1.26,0.318 -1.883,0.454 -1.542,0.338 -0.925,0.565 -3.642,-1.812l-4.034 -3.747c-0.539,0.089 -0.865,0.288 -1.187,-0.201 -0.132,-0.201 -0.203,-0.48 -0.21,-0.725 -0.008,-0.266 0.103,-0.258 -0.035,-0.562 -0.104,-0.356 -0.914,-1.237 -1.198,-1.814 -0.653,-1.323 0.174,-1.296 1.232,-1.487 0.881,-0.158 1.756,-0.308 2.637,-0.468 1.136,-0.207 1.519,-0.191 1.636,-1.308 0.116,-1.105 0.914,-8.473 0.794,-8.967 -0.159,-0.214 -0.982,-0.586 -0.747,-1.438l0.073 -0.158c0.121,-0.207 -0.089,-0.004 0.191,-0.23 0.319,-0.258 0.416,-0.107 0.727,-0.347 0.103,-0.288 0.54,-5.116 0.483,-5.363 -0.268,-0.131 -0.253,0.065 -0.551,-0.16 -0.153,-0.116 -0.218,-0.309 -0.391,-0.375 -0.154,0.306 -0.492,2.557 -0.593,3.118 -0.097,0.537 -0.572,2.802 -0.498,3.137z"/>
   <path class="fil7" d="M482.311 69.585c0.168,-0.033 0.255,-0.013 0.308,-0.02 0.398,-0.047 0.403,-0.225 0.684,-0.121 0.132,0.413 0.052,0.266 -0.422,0.483 0.102,0.287 0.027,-0.047 0.086,0.231 0.022,0.101 0.04,0.238 0.066,0.357 0.06,0.27 0.133,0.553 0.196,0.813l-0.459 0.122 -0.459 -1.865zm-0.767 -0.676c0.187,0.086 0.282,0.032 0.433,0.177 -0.053,0.35 -0.366,0.185 -0.257,0.474 0.12,0.319 0.216,0.017 0.459,0.24 -0.097,0.261 -0.184,0.158 -0.441,0.36l0.245 0.803c0.569,1.663 -2.832,3.084 -4.413,3.768 -1.048,0.453 -2.137,0.868 -3.196,1.309 -0.909,0.378 -2.219,1.041 -3.099,1.296l-0.351 0.174 -12.769 5.601c-0.024,0.277 -0.024,0.358 0.092,0.629 0.001,0.002 0.126,0.236 0.132,0.245 0.072,0.109 0.087,0.11 0.129,0.145l3.907 -1.556 0.05 2.206 -3.784 1.566c-0.115,-0.603 -0.004,-1.235 -0.205,-1.8 -0.135,-0.433 0.066,-0.245 -0.208,-0.282l-0.172 0.298 0.071 1.949 -14.052 5.898 -0.511 -2.482 13.552 -5.28c-0.091,-0.035 -0.08,-0.044 -0.241,-0.063 -0.021,-0.003 -0.146,0.026 -0.171,0.033l-0.217 -0.808 -0.13 0.067 -0.043 0.15c-0.093,0.516 0.191,0.667 -0.97,0.938 -0.541,0.127 -0.445,0.044 -0.515,-0.048 0.033,-0.23 -0.069,-0.069 0.132,-0.193l0.953 -0.245 -0.116 -0.347 -1.583 0.667c0.019,0.012 0.045,0.027 0.057,0.036 0.012,0.009 0.041,0.027 0.054,0.038l0.181 0.214c-0.291,0.265 -1.064,0.36 -1.42,0.276 -0.621,0.086 -3.757,1.583 -4.599,1.952l-9.151 4.004c-0.77,0.333 -1.514,0.659 -2.274,0.993 -0.712,0.313 -1.708,0.844 -2.344,1.048l2.974 -1.129 0.66 2.072 0.396 -0.065 -0.624 -2.204 1.961 -0.747 0.608 2.531c0.44,-0.118 0.269,0.005 0.399,-0.209l-0.557 -2.489 2.583 -1.019 0.54 2.438c-0.334,0.264 -1.362,0.631 -1.795,0.801 0.126,0.101 0.005,0.038 0.172,0.094 0.07,0.024 0.102,0.028 0.182,0.041 0.142,0.023 0.172,0.021 0.366,0.026l1.185 -0.472c0,0 0.166,0.057 0.195,0.178l0.222 -0.172c0.046,-0.221 -0.116,-0.061 0.21,-0.246l10.231 -4.386c0.898,-0.387 2.672,-1.267 3.535,-1.485 0.059,0.654 0.034,1.935 0.23,2.481l0.037 0.341 0.37 -0.05 -0.158 -2.985 3.757 -1.64c0.177,0.889 -0.037,2.898 0.205,3.559l0.095 0.165 0.207 -0.03 -0.023 -3.89 1.74 -0.763 0.074 8.76c0.204,-0.587 0.163,-3.589 0.2,-4.446 0.059,-1.372 0.037,-3.108 0.178,-4.445 0.457,-0.43 6.196,-2.677 7.293,-3.207l-0.083 -0.019c-0.526,0.067 -2.92,1.147 -3.623,1.441 -1.134,0.474 -2.406,1.065 -3.565,1.469 -0.027,-0.352 0.042,-0.47 -0.056,-0.813l-0.082 -0.159 -0.294 0.202 -0.056 0.985 -1.716 0.691c-0.042,-0.464 -0.024,-0.944 -0.033,-1.423 -0.017,-0.862 -0.211,-0.719 0.633,-1.019l-0.261 -0.602c0.22,-0.304 0.279,-0.427 0.719,-0.483 0.435,-0.056 0.594,-0.074 1.071,-0.191 0.068,-0.139 0.001,-0.303 0.052,-0.486 0.407,-0.151 0.347,-0.074 0.544,0.328 0.45,-0.062 0.283,-0.141 0.492,0.076 -0.15,0.473 -0.29,-0.076 -0.427,0.489l0.646 -0.26c0.086,-0.329 0.219,-0.517 0.691,-0.633 0.176,-0.043 0.828,-0.104 1.037,-0.102 0.437,-0.064 1.416,-0.463 1.824,-0.671 0.05,-0.353 0.004,-0.128 -0.015,-0.406 -0.002,-0.027 -0.008,-0.051 -0.009,-0.074l0.031 -0.191c0.175,0.023 0.157,-0.015 0.28,0.109 0.136,0.136 0.087,0.103 0.139,0.337 0.304,-0.164 0.163,-0.149 0.463,-0.176 0.663,-0.092 3.178,-1.191 3.982,-1.516 1.16,-0.469 2.766,-1.215 3.943,-1.55l-0.246 1.522 0.444 -0.049c0.181,-0.519 0.1,-1.218 0.342,-1.688l0.8 -0.382c-0.046,0.648 -0.491,2.227 -0.391,2.668 0.036,0.287 0.004,0.373 0.144,0.63l0.113 0.111 0.299 -3.516c1.404,-0.256 0.897,2.257 0.737,3.247 -0.098,0.609 -0.419,1.965 -0.656,2.53 -0.142,0.339 -0.327,0.459 -0.311,0.785 0.476,0.472 1.316,0.004 1.676,-0.429 0.4,-0.482 0.444,-1.077 0.601,-1.747 0.347,-1.481 0.666,-3.979 0.93,-5.635 0.053,-0.329 0.102,-0.622 0.148,-0.933 0.069,-0.466 0.051,-0.562 0.404,-0.845 1.082,-0.869 2.038,-1.459 2.999,-2.389 -0.291,-0.215 -0.69,-0.16 -1.131,-0.117 -0.049,-0.099 -0.112,-0.226 -0.165,-0.281 -0.15,-0.158 0.068,-0.088 -0.167,-0.084l-0.13 0.032c0.108,0.151 0.164,0.231 0.195,0.482 -0.264,0.184 -0.869,0.156 -1.358,0.315 0.063,0.317 0.106,0.179 0.278,0.372 0.908,-0.185 0.849,-0.352 1.08,0.005 -0.194,0.208 -1.139,0.398 -1.384,0.283 -0.398,-0.186 -0.469,-0.644 -0.599,-1.159l0.357 -0.502c0.003,-0.031 0.033,-0.034 0.049,-0.051l-0.567 -0.239c0.709,-0.517 2.751,-1.526 3.677,-1.502 0.002,0.414 -0.41,0.717 -0.734,1.109 0.296,0.137 0.371,-0.211 0.618,0.113 -0.052,0.247 0.02,0.103 -0.206,0.218 -0.3,0.152 -0.597,-0.019 -0.722,0.445 0.449,0.2 0.284,-0.094 1.19,0.164 0.233,-0.102 0.133,-0.028 0.281,-0.263 -0.05,-0.304 -0.137,-0.602 -0.213,-0.9 -0.194,-0.768 -0.142,-0.55 0.005,-0.703 0.198,0.057 0.219,-0.057 0.429,0.759 0.25,-0.122 0.068,-0.039 0.235,-0.132 0.197,-0.109 -0.034,-0.009 0.244,-0.128l0.218 -0.746 -0.175 -0.727c-0.588,-0.387 -0.375,-0.167 -0.957,-0.351l-1.54 0.37c-0.39,0.322 -1.535,0.711 -2.088,1.004 -0.682,0.361 -1.315,0.785 -1.943,1.123z"/>
   <path class="fil7" d="M480.859 108.466c0.14,0.21 5.304,4.033 5.631,4.232 0.508,-0.171 0.943,-0.255 1.23,-0.003 0.343,0.302 0.267,0.822 0.5,1.219 0.086,0.14 -0.018,0.076 0.17,0.183 0.108,0.069 0.086,-0.112 0.223,0.272 0.024,0.067 0.057,0.315 0.073,0.402 0.044,0.248 0.111,0.446 0.074,0.639l0.674 3.024c-0.34,0.234 -0.496,0.544 -0.88,0.719 -0.002,0.012 -0.002,0.021 0.002,0.038l0.032 0.129c0.127,0.276 0.051,0.143 0.172,0.242 0.355,-0.33 0.941,-0.399 1.202,-0.056l0.363 1.228c0.07,0.537 0.118,0.219 -0.102,0.337 -0.41,0.095 -0.118,-0.988 -0.607,-1.081 -0.365,0.114 -0.487,0.357 -0.543,0.643 -0.062,0.35 0.013,0.385 0.145,0.717 -0.375,0.041 -0.127,-0.052 -0.397,0.157l0.08 0.483c0.537,-0.129 0.393,-0.31 0.732,-0.556 0.432,0.128 1.214,0.538 1.38,1.25l-0.278 0.309c0.397,0.169 1.023,0.06 1.476,-0.155 0.985,-0.469 0.655,-1.807 0.166,-2.479 -0.499,-0.685 -0.555,-0.089 -0.791,-1.21 1.846,0.303 2.419,3.324 0.292,4.249 -0.661,0.287 -1.744,0.072 -2.193,0.44 0.134,0.274 0.273,0.273 0.604,0.375 0.247,0.077 0.455,0.147 0.702,0.192 0.569,0.102 1.177,0.017 1.745,-0.22 3.302,-1.378 2.337,-6.627 -1.513,-6.416 -0.355,-0.805 -0.688,-2.227 -0.956,-3.125 -0.231,-0.776 -0.339,-1.727 -1.661,-2.081 -0.059,0.268 0.024,0.63 0.185,0.857 0.37,0.451 0.712,-0.093 1.058,0.225 -0.049,0.152 0.224,0.155 -0.794,0.374 -0.521,0.112 -1.021,-0.667 -0.795,-1.515 0.005,-0.018 0.033,-0.098 0.04,-0.124 -0.244,-0.292 -3.148,-1.944 -3.747,-2.306 -0.653,-0.396 -1.241,-0.749 -1.894,-1.14 -0.615,-0.369 -1.275,-0.824 -1.89,-1.121 -0.085,0.159 -0.109,-0.156 -0.011,0.311 0.018,0.082 0.075,0.25 0.101,0.342z"/>
   <path class="fil7" d="M440.107 100.906l2.203 -0.666 1.454 5.693 -1.717 0.281c-0.265,-0.859 -0.66,-1.79 -0.985,-2.646 -0.232,-0.614 -0.876,-2.099 -0.955,-2.662zm4.28 -1.266l0.914 -0.329c0.032,0.126 0.064,0.295 0.102,0.412 0.031,0.094 0.045,0.121 0.088,0.205l0.084 0.094 -0.16 -0.708 13.332 -4.13 0.591 8.424 -15.47 2.312 -1.261 -5.785 1.78 -0.495zm-5.053 1.875c0.372,0.07 0.395,0.249 0.489,0.64 0.083,0.348 0.169,0.699 0.223,1.049l-0.263 0.036 1.24 4.642 0.212 0.36c0.071,0.163 0.117,0.349 0.166,0.52 0.03,-0.124 -0.02,-0.326 0.474,-0.499 0.048,-0.017 0.446,-0.12 0.484,-0.124 0.413,-0.045 0.136,-0.135 0.331,0.099 -0.056,0.293 -0.069,0.18 -0.41,0.279 -0.064,0.018 -0.233,0.06 -0.281,0.083 -0.509,0.249 -0.214,0.829 0.03,1.076 0.25,0.038 0.585,-0.021 0.795,-0.134 0.235,-0.049 0.154,-0.051 0.448,-0.044l-0.376 -1.567c-0.472,0.114 -0.027,0.021 -0.226,-0.029l-0.436 -1.239 1.597 -0.249c0.205,0.302 0.252,0.759 0.362,1.106l-0.235 -1.113 21.995 -3.666 -6.499 0.878 -0.386 -8.521 3.662 -1.146 0.167 3.915 0.044 -3.979 2.294 -0.709c0.751,-0.246 1.537,-0.475 2.294,-0.707l-2.651 0.626c-0.106,-0.09 -0.042,0.113 -0.142,-0.233l-0.094 0.305 -1.696 0.493c-0.041,-0.998 0.118,-3.85 -0.079,-4.539l-0.093 -0.175 -0.152 0.363 0.098 4.421 -3.666 1.065 -0.234 -4.762c-0.431,0.108 -0.089,-0.048 -0.39,0.2l0.319 4.657 -13.422 3.94c-0.158,-0.748 -0.314,-2.256 -0.599,-2.862 -0.293,-0.518 0.002,-1.001 -0.401,-1.32 -0.138,0.514 0.3,1.206 0.258,1.747 0.151,0.576 0.616,2.004 0.523,2.494l-2.604 0.78 -0.94 -4.278c-0.057,-0.258 -0.387,-1.175 -0.158,-1.315l-0.197 -0.184c-0.283,0.183 -0.297,0.235 -0.266,0.537 0.014,1.331 1.231,4.054 1.235,5.347l-0.789 0.209c-0.217,0.186 -0.716,0.316 -1.031,0.391l-0.46 0.097 -1.917 -5.001 -0.06 -0.404c-0.282,-0.273 -0.381,-1.119 -0.683,-1.455l2.096 7.899z"/>
   <path class="fil7 str1" d="M455.183 133.324l0.976 -0.235c0.218,-0.179 1.956,-1.134 1.835,-2.123 -0.629,0.134 -0.794,0.455 -1.275,0.701 0.02,-0.142 0.892,-1.715 -0.09,-2.622 -0.67,0.005 -0.963,0.366 -1.337,-0.021 -0.096,-0.1 -0.023,-0.006 -0.115,-0.144l-0.249 -0.472 -0.428 0.122c-0.13,0.198 -0.053,-0.03 -0.056,0.255 0.259,0.202 0.869,0.451 1.038,0.703 0.692,1.029 -0.648,2.022 -1.457,1.269 -0.33,-0.307 -0.621,-1.107 -0.852,-0.598l-0.092 -0.194c-0.247,-0.184 -0.119,-0.064 -0.491,-0.004 -0.392,0.062 -0.155,0.116 -0.358,-0.074 0.106,-0.287 -0.081,-0.14 0.357,-0.264 0.343,-0.097 0.241,0.006 0.54,-0.205l0.015 -0.181c-0.166,-0.194 -0.493,-0.104 -0.725,-0.104 -0.42,0 -0.369,-0.132 -0.527,-0.547 -0.488,1.003 -0.387,2.362 0.418,3.408 0.363,0.469 0.828,0.818 1.24,0.984 0.7,0.282 0.994,0.175 1.633,0.346z"/>
   <path class="fil7" d="M478.932 77.593l-0.042 0.468 -0.144 1.097 -0.105 0.459c-0.004,0.014 -0.015,0.074 -0.023,0.062 -0.009,-0.011 -0.016,0.043 -0.025,0.064l-1.048 6.421 -0.073 0.356 0 0.253 -0.058 -0.004c-0.105,1.218 -0.93,5.978 -1.191,7.465 -0.163,0.925 -1.105,6.995 -1.25,7.309 0.049,0.426 -0.065,0.521 -0.085,0.934l0.422 -0.142 1.447 -8.048 0.176 -1.185c0.006,-0.035 0.03,-0.156 0.037,-0.183 0.007,-0.024 0.035,-0.101 0.044,-0.123 0.007,-0.018 0.023,-0.047 0.029,-0.061 0.006,-0.015 0.019,-0.042 0.031,-0.062 -0.074,-0.335 0.401,-2.6 0.498,-3.137 0.101,-0.561 0.439,-2.812 0.593,-3.118 0.012,-0.366 0.093,-1.133 0.29,-1.396 -0.055,-0.306 0.85,-5.533 1.012,-5.856 0.009,-0.272 0.02,-0.289 0.074,-0.566 0.019,-0.098 0.015,-0.142 0.049,-0.244 0.042,-0.127 0.034,-0.078 0.093,-0.165 -0.1,-0.441 0.345,-2.02 0.391,-2.668l-0.8 0.382c-0.242,0.47 -0.161,1.169 -0.342,1.688z"/>
   <path class="fil7" d="M478.455 85.022c0.211,0.261 0.248,-0.136 0.521,0.186 -0.074,0.264 -0.251,0.248 -0.261,0.253 -0.131,0.085 -0.085,0.023 -0.161,0.102l0.254 1.017 0.375 -0.152c0.114,-0.283 0.673,-6.572 0.61,-6.826l-0.162 -0.249c-0.155,-0.219 0.004,-0.113 -0.164,-0.187 -0.162,0.323 -1.067,5.55 -1.012,5.856z"/>
   <path class="fil7" d="M474.973 101.543c0.145,-0.314 1.087,-6.384 1.25,-7.309 0.261,-1.487 1.086,-6.247 1.191,-7.465l-0.226 0c-0.218,0.323 -1.099,6.855 -1.161,7.347 -0.139,1.121 -1.162,6.877 -1.054,7.427z"/>
   <path class="fil7 str1" d="M481.294 121.833l6.062 -1.424c0.101,-0.026 0.416,-0.129 0.481,-0.14 0.543,-0.091 0.22,-0.148 0.445,0.098 0.122,-0.292 0.232,0.287 0.077,-0.359l-1.301 0.361c0.126,-0.171 0.165,-0.135 0.403,-0.213 0.124,-0.04 0.181,-0.046 0.302,-0.1 0.165,-0.074 0.082,-0.021 0.169,-0.112 -0.176,-0.28 -0.098,-0.228 -0.466,-0.167 -0.075,0.012 -0.477,0.134 -0.543,0.167 -0.21,0.106 -0.182,0.11 -0.291,0.296 -0.184,0.312 0.01,0.148 -0.25,0.342 -0.434,-0.147 -0.147,-0.229 -0.564,-0.317 -0.541,-0.115 -0.902,0.164 -1.16,0.541 -0.198,0.288 -0.25,0.203 -0.633,0.319l0.189 -0.117c0.322,-0.206 0.219,-0.075 0.286,-0.238 -0.181,-0.324 -0.161,-0.246 -0.487,-0.084 -0.385,0.192 -0.098,0.133 -0.476,0.026 -0.054,0.173 -0.071,0.146 0.046,0.479l-0.708 0.139c0.319,-0.312 0.312,0.107 0.397,-0.349 -0.375,-0.34 -0.563,0.219 -0.469,-0.277 0.043,-0.223 0.066,-0.033 0.205,-0.227 0.103,-0.143 0.149,0.261 0.075,-0.344 -1.136,0.017 -0.506,0.835 -0.962,0.995 -0.318,0.111 -0.724,-0.165 -0.827,0.705z"/>
   <path class="fil7 str1" d="M442.824 109.542c0.295,0.086 0.731,-0.029 1.04,-0.067 0.354,-0.045 0.691,-0.107 1.048,-0.151 -0.328,-0.314 -0.65,-0.361 -0.944,-0.632 0.046,-0.105 0.443,-0.707 0.587,-0.889l0.459 0.13 0.134 1.297c0.097,0.031 -0.061,0.036 0.196,0.026 0.131,-0.005 0.248,-0.029 0.378,-0.049l-0.352 -1.396 0.514 -0.071 -0.1 -0.367 -1.929 0.333c0.166,0.083 -0.147,0.272 0.248,0.06 -0.216,0.143 -0.017,-0.068 -0.228,0.233 -0.192,0.275 -0.2,0.511 -0.352,0.599 -0.077,-0.345 -0.201,-0.566 -0.146,-0.753 -0.096,-0.028 0.05,-0.024 -0.185,-0.019 -0.097,0.002 -0.042,0 -0.151,0.011 -0.111,0.012 -0.261,0.046 -0.371,0.065 0.199,0.05 -0.246,0.143 0.226,0.029l0.376 1.567c-0.294,-0.007 -0.213,-0.005 -0.448,0.044z"/>
   <path class="fil7" d="M477.279 86.132c0.156,0.109 -0.047,0.098 0.266,0.032l1.048 -6.421 -0.426 -0.237c0.027,0.719 -0.334,2.491 -0.457,3.295 -0.093,0.601 -0.523,2.94 -0.431,3.331z"/>
   <path class="fil7 str1" d="M479.636 70.222c-0.184,0.092 -0.05,-0.008 -0.212,0.117 -0.234,0.181 -0.114,0.091 -0.185,0.196 0.232,0.163 0.004,-0.058 0.146,0.2l0.11 0.254c0.095,0.242 0.119,0.359 0.169,0.619l0.951 -0.534c-0.184,-0.028 -0.122,-0.01 -0.2,-0.089l0.242 -0.428c0.084,-0.127 0.158,-0.217 0.177,-0.407l0.548 0.095 0.157 0.657c0.185,0.001 0.306,0.031 0.444,0.061l-0.245 -0.803c0.257,-0.202 0.344,-0.099 0.441,-0.36 -0.243,-0.223 -0.339,0.079 -0.459,-0.24 -0.109,-0.289 0.204,-0.124 0.257,-0.474 -0.151,-0.145 -0.246,-0.091 -0.433,-0.177 -0.274,0.154 -0.079,0.012 -0.133,0.168 0.289,0.106 0.023,0.018 -0.108,0.228 -0.262,0.418 0.151,0.429 -0.184,0.625 -0.336,0.196 -0.482,-0.183 -0.816,0.404 -0.103,0.181 -0.186,0.47 -0.328,0.574 -0.157,-0.368 -0.012,-0.416 -0.339,-0.686z"/>
   <path class="fil7 str1" d="M452.038 128.179c-0.043,0.211 -0.052,0.187 -0.146,0.407 0.158,0.415 0.107,0.547 0.527,0.547 0.232,0 0.559,-0.09 0.725,0.104 0.172,-0.218 0.097,-0.181 0.226,-0.446 -1.039,-0.107 -0.768,0.123 -0.996,-0.199 0.069,-0.122 -0.13,-0.023 0.205,-0.192l1.192 -0.228c0.335,-0.198 0.614,-0.412 1.055,-0.535 0.727,-0.24 1.289,0.029 1.962,0.063 -0.248,-0.353 -0.097,-0.344 -0.499,-0.419 -0.657,-0.123 -1.238,0.198 -2.06,0.332 -0.274,-0.271 -0.075,-0.509 -0.584,-0.318l-0.027 0.352c-0.002,0.014 -0.006,0.074 -0.013,0.063 -0.007,-0.011 -0.005,0.043 -0.015,0.063l-1.552 0.406z"/>
   <path class="fil7 str1" d="M448.436 107.501c-0.269,0.142 0.19,-0.062 -0.13,0.06l-0.695 0.085c-0.06,-0.353 0.065,-0.336 0.433,-0.389 0.37,-0.053 0.366,-0.099 0.494,0.166l-0.102 0.078zm-0.841 1.396c0.086,0.027 -0.009,0.028 0.202,0.033 0.101,0.002 0.178,-0.012 0.276,-0.025 0.071,-0.079 0.037,-0.066 0.187,-0.139 0.41,-0.201 0.578,-0.034 0.849,-0.296 -0.343,-0.674 -0.988,0.548 -1.4,-0.384l1.348 -0.326c0.02,-0.413 -0.124,-0.561 -0.358,-0.813l0.49 -0.09c-0.096,-0.023 0.046,-0.025 -0.22,-0.02 -0.098,0.002 -0.141,0.01 -0.237,0.025 -0.147,0.022 -0.334,0.067 -0.49,0.094 -0.291,0.052 -0.576,0.101 -0.868,0.15 -0.036,0.087 -0.152,0.26 -0.191,0.39 -0.077,0.256 0.041,1.236 0.751,1.277l-0.339 0.124z"/>
   <path class="fil7 str1" d="M463.532 82.122l1.143 -0.445 0.029 1.211 0.294 -0.202 0.082 0.159c0.142,-0.226 0.097,-0.613 0.069,-0.91 -0.301,0.065 -0.095,0.051 -0.501,-0.343l-0.701 0.237c-0.16,-0.254 -0.039,-0.112 -0.194,-0.235 0.383,-0.371 0.913,-0.266 1.519,-0.463l0.048 0.291 0.402 -0.169c0.137,-0.565 0.277,-0.016 0.427,-0.489 -0.209,-0.217 -0.042,-0.138 -0.492,-0.076 -0.197,-0.402 -0.137,-0.479 -0.544,-0.328 -0.051,0.183 0.016,0.347 -0.052,0.486 -0.477,0.117 -0.636,0.135 -1.071,0.191 -0.44,0.056 -0.499,0.179 -0.719,0.483l0.261 0.602z"/>
   <path class="fil7 str1" d="M470.259 109.136c0.104,0.127 0.052,0.102 0.161,0.18 0.137,0.099 0.033,0.033 0.193,0.093 0.333,-0.268 1.127,-0.297 1.495,-0.366 0.067,0.258 0.169,1.328 0.826,1.33 0.176,0.001 0.376,0.016 0.538,-0.149 -0.221,-0.453 -0.106,-0.065 -0.514,-0.215l-0.284 -1.031 0.473 -0.228c-0.227,-0.354 -0.172,-0.286 -0.644,-0.155l-0.161 -0.446 -0.354 0.07c-0.085,0.366 0.064,0.182 0.029,0.484 -0.343,0.094 -0.593,0.151 -0.924,0.179 -0.506,0.044 -0.429,0.146 -0.834,0.254z"/>
   <path class="fil7 str1" d="M470.613 124.164c0.23,0.069 5.126,-1.011 5.49,-1.222l0.466 -0.264c-0.24,-0.427 -0.196,0.044 -0.58,-0.291 -0.266,-0.231 -0.036,-0.338 -0.555,-0.183 -0.102,0.392 0.123,0.148 -0.052,0.483 -0.446,0.139 -0.696,0.047 -1.137,0.194 -0.535,0.178 -0.675,0.598 -0.7,0.616 -0.803,0.215 -2.243,0.275 -2.932,0.667z"/>
   <path class="fil7 str1" d="M471.485 76.84c0.264,-0.133 0.865,-0.749 1.183,-1.014 0.435,-0.362 0.868,-0.681 1.342,-1.02 0.708,-0.508 2.063,-1.574 2.815,-1.91 -0.113,-0.052 -0.066,-0.04 -0.231,-0.069 -0.028,-0.005 -0.112,-0.006 -0.139,-0.009 -0.177,-0.015 -0.147,-0.01 -0.328,-0.026 -0.71,0.225 -4.33,3.554 -4.642,4.048z"/>
   <path class="fil7 str1" d="M485.174 69.55l-0.717 0.478 -0.245 -0.322c0.011,0.236 0.054,0.091 -0.036,0.218l-0.3 -0.025 -0.054 -0.292 0.286 -0.018 -0.316 -0.294c-0.016,0.017 -0.046,0.02 -0.049,0.051l-0.357 0.502c0.13,0.515 0.201,0.973 0.599,1.159 0.245,0.115 1.19,-0.075 1.384,-0.283 -0.231,-0.357 -0.172,-0.19 -1.08,-0.005 -0.172,-0.193 -0.215,-0.055 -0.278,-0.372 0.489,-0.159 1.094,-0.131 1.358,-0.315 -0.031,-0.251 -0.087,-0.331 -0.195,-0.482z"/>
   <path class="fil7" d="M438.48 94.893l-0.119 -0.008 0.076 0.427 0.265 -0.066 1.489 4.589 -0.011 -0.337 -1.161 -4.431 0.478 -0.199c0.165,-0.202 0.194,-0.178 0.178,-0.374 -0.158,-0.031 0.016,-0.022 -0.195,-0.012l-0.167 0.038c-0.065,0.005 -0.242,0.025 -0.292,0.025 -0.242,0 0.009,0.052 -0.157,-0.025l-0.384 0.373z"/>
   <path class="fil7 str1" d="M488.425 120.587l0.443 -0.266c-0.038,-0.208 -0.066,-0.37 -0.047,-0.5l0.637 -0.171 0.023 0.095c0.289,-0.184 0.169,-0.08 0.237,-0.061 -0.053,0.432 0.102,-0.217 -0.021,0.126 -0.014,0.038 -0.073,0.164 -0.081,0.18 0.489,0.093 0.197,1.176 0.607,1.081 0.22,-0.118 0.172,0.2 0.102,-0.337l-0.363 -1.228c-0.261,-0.343 -0.847,-0.274 -1.202,0.056 -0.121,-0.099 -0.045,0.034 -0.172,-0.242l-0.032 -0.129c-0.004,-0.017 -0.004,-0.026 -0.002,-0.038 -0.195,-0.096 -0.123,-0.067 -0.418,-0.04 0.132,0.455 0.329,1.01 0.289,1.474z"/>
   <path class="fil7 str1" d="M450.319 106.675l-0.139 -0.018c-0.027,-0.001 -0.592,-0.028 -0.991,0.2 -0.129,0.488 -0.042,0.299 0.167,0.688 0.252,-0.024 0.45,-0.034 0.686,-0.013 0.336,0.03 0.358,0.006 0.522,0.25 -0.016,0.015 -0.047,0.011 -0.052,0.036l-0.113 0.067c-0.021,0.009 -0.043,0.019 -0.067,0.028 -0.568,0.208 -0.776,0.038 -0.845,0.382 0.117,0.15 -0.016,0.254 1.01,-0.086 0.707,-0.233 0.674,-0.973 -0.177,-1.04 -0.688,-0.054 -0.655,0.134 -0.774,-0.227l0.773 -0.267z"/>
   <path class="fil7 str1" d="M476.103 122.942c0.49,0.102 2.477,-0.51 3.162,-0.64 0.08,-0.125 0.027,-0.139 0.448,-0.285l0.454 -0.204c-0.132,-0.246 -0.045,-0.211 -0.379,-0.179 -1.22,0.115 -0.743,0.961 -1.483,0.651 -1.131,-0.474 -1.512,0.412 -1.512,0.412l-0.69 0.245z"/>
   <path class="fil7 str1" d="M478.13 71.255l0.148 0.498 0.125 0.014 0.742 -0.357c-0.13,0.096 -0.406,0.569 -0.459,0.744l0.978 -0.546c-0.05,-0.26 -0.074,-0.377 -0.169,-0.619l-0.11 -0.254c-0.142,-0.258 0.086,-0.037 -0.146,-0.2 -0.373,0.106 -0.795,0.466 -1.109,0.72z"/>
   <path class="fil7 str1" d="M478.38 94.489l0.179 -1.295 -0.469 0.093c-0.074,-0.479 0.099,-0.377 0.53,-0.509l0.004 -0.462c-0.311,0.24 -0.408,0.089 -0.727,0.347 -0.28,0.226 -0.07,0.023 -0.191,0.23l-0.073 0.158c-0.235,0.852 0.588,1.224 0.747,1.438z"/>
   <path class="fil7 str1" d="M459.993 105.021c-0.337,-0.085 -1.047,0.125 -1.928,0.266 0.598,0.601 1.129,-0.267 1.302,0.539 -0.712,0.208 -0.93,0.076 -1.049,0.429 0.346,0.335 2.14,-0.282 1.31,-1.036l-0.167 -0.118c0.364,-0.006 0.226,0.03 0.532,-0.08z"/>
   <path class="fil7 str1" d="M445.722 109.207l0.24 -0.088c0.295,-0.102 0.163,-0.063 0.51,-0.06l-0.432 -1.731 -0.256 0.045 0.1 0.367 -0.514 0.071 0.352 1.396z"/>
   <path class="fil7 str1" d="M482.77 71.45l0.459 -0.122c-0.063,-0.26 -0.136,-0.543 -0.196,-0.813 -0.026,-0.119 -0.044,-0.256 -0.066,-0.357 -0.059,-0.278 0.016,0.056 -0.086,-0.231 0.474,-0.217 0.554,-0.07 0.422,-0.483 -0.281,-0.104 -0.286,0.074 -0.684,0.121 -0.053,0.007 -0.14,-0.013 -0.308,0.02l0.459 1.865z"/>
   <path class="fil7 str1" d="M444.912 109.324l0.236 -0.094 -0.134 -1.297 -0.459 -0.13c-0.144,0.182 -0.541,0.784 -0.587,0.889 0.294,0.271 0.616,0.318 0.944,0.632z"/>
   <path class="fil7 str1" d="M485.304 69.518c0.235,-0.004 0.017,-0.074 0.167,0.084 0.053,0.055 0.116,0.182 0.165,0.281 0.441,-0.043 0.84,-0.098 1.131,0.117 0.206,-0.248 0.174,-0.104 0.281,-0.397 -0.906,-0.258 -0.741,0.036 -1.19,-0.164 0.125,-0.464 0.422,-0.293 0.722,-0.445 0.226,-0.115 0.154,0.029 0.206,-0.218 -0.247,-0.324 -0.322,0.024 -0.618,-0.113 -0.204,0.152 -0.777,0.63 -0.864,0.855z"/>
   <path class="fil7 str1" d="M446.854 109.064c0.323,-0.05 0.461,-0.031 0.741,-0.167l0.339 -0.124c-0.71,-0.041 -0.828,-1.021 -0.751,-1.277 0.039,-0.13 0.155,-0.303 0.191,-0.39l-0.394 0.065c0.22,0.497 0.114,0.186 -0.388,0.525l0.262 1.368z"/>
   <path class="fil7 str1" d="M445.962 109.119c0.094,0.031 -0.014,0.028 0.202,0.031 0.103,0.002 0.129,-0.003 0.231,-0.014 0.136,-0.015 0.314,-0.053 0.459,-0.072l-0.262 -1.368c0.502,-0.339 0.608,-0.028 0.388,-0.525l-0.94 0.157 0.432 1.731c-0.347,-0.003 -0.215,-0.042 -0.51,0.06z"/>
   <path class="fil7 str1" d="M479.636 70.222c0.327,0.27 0.182,0.318 0.339,0.686 0.142,-0.104 0.225,-0.393 0.328,-0.574 0.334,-0.587 0.48,-0.208 0.816,-0.404 0.335,-0.196 -0.078,-0.207 0.184,-0.625 0.131,-0.21 0.397,-0.122 0.108,-0.228 -0.328,0.076 -1.539,0.909 -1.775,1.145z"/>
   <path class="fil7 str1" d="M459.821 126.565l3.006 -0.649 -0.171 -0.218c-0.428,0.072 -0.276,0.179 -0.583,0.205 -0.266,0.022 0.166,-0.176 -0.235,0.032l-0.19 0.159c-0.194,-0.058 -0.122,-0.047 -0.3,-0.075 -0.141,-0.022 -0.141,0.007 -0.286,-0.033 -0.07,-0.495 0.096,-0.093 0.348,-0.533 -0.11,-0.113 0.057,-0.168 -0.303,-0.158 -0.638,0.02 -0.347,0.864 -0.678,0.984 -0.436,0.157 -0.732,-0.11 -0.608,0.286z"/>
   <path class="fil7 str2" d="M488.606 112.563l-0.306 -0.183c-0.007,0.026 -0.035,0.106 -0.04,0.124 -0.226,0.848 0.274,1.627 0.795,1.515 1.018,-0.219 0.745,-0.222 0.794,-0.374 -0.346,-0.318 -0.688,0.226 -1.058,-0.225 -0.161,-0.227 -0.244,-0.589 -0.185,-0.857z"/>
   <path class="fil7" d="M478.165 86.418c0.173,0.066 0.238,0.259 0.391,0.375 0.298,0.225 0.283,0.029 0.551,0.16 0.066,-0.127 0.037,-0.003 0.065,-0.187 0.02,-0.133 0.012,-0.174 0.011,-0.338l-0.375 0.152 -0.254 -1.017c0.076,-0.079 0.03,-0.017 0.161,-0.102 0.01,-0.005 0.187,0.011 0.261,-0.253 -0.273,-0.322 -0.31,0.075 -0.521,-0.186 -0.197,0.263 -0.278,1.03 -0.29,1.396z"/>
   <path class="fil7 str1" d="M472.324 80.748l0.083 0.019c0.991,-0.359 2.038,-0.825 2.95,-1.25 0.852,-0.396 2.214,-1.052 2.999,-1.318l-0.189 1.307 0.426 0.237c0.009,-0.021 0.016,-0.075 0.025,-0.064 0.008,0.012 0.019,-0.048 0.023,-0.062l0.105 -0.459c-0.298,-0.119 -0.052,0.09 -0.214,-0.182 -0.001,-0.002 -0.081,-0.234 -0.083,-0.24 -0.04,-0.2 0.001,-0.381 0.011,-0.576l-4.669 1.89c-0.376,0.168 -1.069,0.387 -1.32,0.566 -0.143,0.101 -0.074,0.042 -0.147,0.132z"/>
   <path class="fil7 str1" d="M466.676 125.08l1.824 -0.397c-0.025,-0.012 -0.057,-0.024 -0.077,-0.032 -0.615,-0.245 -0.844,-0.422 -1.361,0.056 -0.07,-0.17 -0.084,-0.252 -0.148,-0.415 -0.012,-0.033 -0.069,-0.164 -0.083,-0.19 -0.078,-0.147 -0.033,-0.08 -0.118,-0.166l-0.238 0.068c-0.098,0.269 0.093,0.751 0.201,1.076z"/>
   <path class="fil7 str1" d="M462.966 104.441l-0.494 0.101c0.103,0.228 0.129,0.227 0.029,0.482 -0.543,0.262 -0.516,0.103 -0.917,0.052l-0.09 -0.374 -0.385 0.063c0.106,0.709 0.361,0.888 1.082,0.727 0.813,-0.182 0.721,-0.425 0.775,-1.051z"/>
   <path class="fil7 str1" d="M442.029 109.676c-0.244,-0.247 -0.539,-0.827 -0.03,-1.076 0.048,-0.023 0.217,-0.065 0.281,-0.083 0.341,-0.099 0.354,0.014 0.41,-0.279 -0.195,-0.234 0.082,-0.144 -0.331,-0.099 -0.038,0.004 -0.436,0.107 -0.484,0.124 -0.494,0.173 -0.444,0.375 -0.474,0.499 -0.049,-0.171 -0.095,-0.357 -0.166,-0.52l-0.212 -0.36c0.162,0.645 0.292,1.405 0.66,1.792l0.346 0.002z"/>
   <path class="fil7 str1" d="M456.932 83.637l0.207 0.908 0.276 -0.092 0.294 -0.055c0.085,-0.097 -0.047,0.01 0.184,-0.184 0.016,-0.014 0.088,-0.043 0.097,-0.049l-0.188 -0.912 -0.87 0.384z"/>
   <path class="fil7" d="M441.133 93.608c-0.13,0.214 0.041,0.091 -0.399,0.209l-0.09 0.074 -0.308 0.633c0.095,-0.039 0.222,-0.101 0.321,-0.115 0.215,-0.031 0.128,-0.03 0.286,0.023 -0.031,-0.302 -0.017,-0.354 0.266,-0.537l0.197 0.184c0.202,-0.076 0.386,-0.158 0.606,-0.25 0.093,-0.039 0.254,-0.103 0.336,-0.144l0.276 -0.185c-0.194,-0.005 -0.224,-0.003 -0.366,-0.026 -0.08,-0.013 -0.112,-0.017 -0.182,-0.041 -0.167,-0.056 -0.046,0.007 -0.172,-0.094l-0.771 0.269z"/>
   <path class="fil7" d="M444.585 96.398c0.042,-0.541 -0.396,-1.233 -0.258,-1.747 0.403,0.319 0.108,0.802 0.401,1.32 0.07,-0.24 -0.066,-0.709 -0.128,-1.023 -0.078,-0.338 -0.25,-0.89 -0.168,-1.152l-0.206 -0.762 -0.222 0.172c-0.029,-0.121 -0.195,-0.178 -0.195,-0.178l0.776 3.37z"/>
   <path class="fil7 str1" d="M474.711 110.021c-0.12,-0.185 0.045,-0.029 -0.159,-0.207 -0.168,-0.148 -0.087,-0.072 -0.22,-0.131l-0.079 0.133c-0.16,-0.104 -0.041,-0.043 -0.187,-0.11 -0.096,-0.045 -0.262,-0.031 -0.307,-0.406 -0.031,-0.255 -0.009,-0.17 0.05,-0.281 -0.187,-0.208 -0.268,-0.394 -0.53,-0.486 0.138,0.304 0.027,0.296 0.035,0.562 0.007,0.245 0.078,0.524 0.21,0.725 0.322,0.489 0.648,0.29 1.187,0.201z"/>
   <path class="fil7 str1" d="M451.837 106.402c-0.091,-0.028 0.05,-0.03 -0.19,-0.025 -0.092,0.002 -0.138,0.014 -0.226,0.029 -0.17,0.028 -0.365,0.075 -0.54,0.107l0.417 1.523 0.467 -0.108 -0.371 -1.362 0.443 -0.164z"/>
   <path class="fil7 str2" d="M486.938 113.015c0.205,-0.235 0.445,-0.061 0.561,0.011l0.128 0.392 -0.081 0.02c0.209,0.212 0.355,0.415 0.674,0.476 -0.233,-0.397 -0.157,-0.917 -0.5,-1.219 -0.287,-0.252 -0.722,-0.168 -1.23,0.003 0.103,0.096 0.023,0.036 0.183,0.152 0.018,0.014 0.079,0.056 0.099,0.069 0.101,0.066 0.07,0.048 0.166,0.096z"/>
   <path class="fil7 str1" d="M476.757 94.287c0.142,0.056 -0.001,-0.039 0.184,0.258l0.45 0.002 -0.343 -1.224c0.309,-0.479 0.589,0.059 0.425,-0.586 -0.335,-0.042 -0.129,0.081 -0.399,-0.064 -0.012,0.02 -0.025,0.047 -0.031,0.062 -0.006,0.014 -0.022,0.043 -0.029,0.061 -0.009,0.022 -0.037,0.099 -0.044,0.123 -0.007,0.027 -0.031,0.148 -0.037,0.183l-0.176 1.185z"/>
   <path class="fil7 str1" d="M466.351 103.932c-0.302,-0.109 -0.974,0.11 -1.359,0.172l0.155 0.707 0.318 -0.126c0.085,-0.241 0.02,-0.307 -0.064,-0.601 0.788,0.122 0.596,0.673 1.429,0.367 -0.104,-0.101 -0.182,-0.157 -0.307,-0.234 -0.245,-0.151 -0.136,-0.124 -0.399,-0.171l0.227 -0.114z"/>
   <path class="fil7 str1" d="M487.329 69.34c0.152,-0.143 0.064,-0.067 0.208,-0.237 0.089,-0.105 0.159,-0.166 0.227,-0.268 0.083,-0.125 0.183,-0.401 0.265,-0.599 -0.278,0.119 -0.047,0.019 -0.244,0.128 -0.167,0.093 0.015,0.01 -0.235,0.132 -0.21,-0.816 -0.231,-0.702 -0.429,-0.759 -0.147,0.153 -0.199,-0.065 -0.005,0.703 0.076,0.298 0.163,0.596 0.213,0.9z"/>
   <path class="fil7 str1" d="M480.615 71.074l0.924 -0.172 -0.157 -0.657 -0.548 -0.095c-0.019,0.19 -0.093,0.28 -0.177,0.407l-0.242 0.428c0.078,0.079 0.016,0.061 0.2,0.089z"/>
   <path class="fil7 str1" d="M465.149 81.935c0.056,-0.347 -0.083,-0.305 0.171,-0.513l-0.048 -0.291c-0.606,0.197 -1.136,0.092 -1.519,0.463 0.155,0.123 0.034,-0.019 0.194,0.235l0.701 -0.237c0.406,0.394 0.2,0.408 0.501,0.343z"/>
   <path class="fil7 str1" d="M463.525 104.358l-0.485 0.089c0.073,0.101 0.659,0.887 0.701,0.638 0.337,-0.054 0.856,-0.1 1.056,-0.305 -0.262,-0.652 -0.626,0.422 -1.272,-0.422z"/>
   <path class="fil7 str1" d="M485.973 114.933l2.539 -0.666 0.248 1.143c0.037,-0.193 -0.03,-0.391 -0.074,-0.639 -0.016,-0.087 -0.049,-0.335 -0.073,-0.402 -0.137,-0.384 -0.115,-0.203 -0.223,-0.272 -0.044,0.223 0.127,0.169 -0.368,0.248 -0.899,0.144 -3.088,0.486 -3.752,0.781 0.151,0.165 1.292,-0.33 1.703,-0.193z"/>
   <path class="fil7 str1" d="M477.283 71.891l-0.067 0.432c-0.122,0.046 -0.252,0.109 -0.386,0.125 -0.308,0.037 -0.11,0.133 -0.234,-0.06l-0.293 0.207c-0.017,0.014 -0.035,0.029 -0.05,0.043 -0.083,0.081 -0.083,0.095 -0.126,0.154 0.181,0.016 0.151,0.011 0.328,0.026 0.027,0.003 0.111,0.004 0.139,0.009 0.165,0.029 0.118,0.017 0.231,0.069l0.894 -0.631 -0.079 -0.631 -0.357 0.257z"/>
   <path class="fil7 str1" d="M460.421 104.881l-0.428 0.14c0.041,0.398 0.229,0.594 0.451,0.847 0.327,-0.035 0.55,-0.021 0.765,-0.224 -0.176,-0.329 0.002,-0.146 -0.364,-0.191l-0.424 -0.572z"/>
   <path class="fil7 str1" d="M455.838 84.131l0.116 0.347 -0.953 0.245c-0.201,0.124 -0.099,-0.037 -0.132,0.193 0.07,0.092 -0.026,0.175 0.515,0.048 1.161,-0.271 0.877,-0.422 0.97,-0.938l0.043 -0.15 -0.559 0.255z"/>
   <path class="fil7 str1" d="M452.97 106.211c-0.209,-0.06 -0.134,-0.038 -0.411,0.006 -0.143,0.022 -0.312,0.061 -0.458,0.087 0.272,0.372 0.185,0.308 0.318,0.778 0.027,0.096 0.126,0.366 0.158,0.415 0.201,0.298 -0.046,0.205 0.315,0.142 0.103,-0.274 -0.131,-0.987 -0.242,-1.29l0.32 -0.138z"/>
   <path class="fil7 str1" d="M456.629 129.045l-0.445 -0.386c-0.101,0.146 0.03,0.091 -0.223,0.163 -0.09,0.025 -0.181,0.018 -0.264,-0.01 -0.159,-0.054 -0.331,-0.217 -0.182,-0.352 -0.117,-0.083 0.046,-0.064 -0.24,-0.085 -0.156,-0.011 -0.166,0.006 -0.347,0.033l0.249 0.472c0.092,0.138 0.019,0.044 0.115,0.144 0.374,0.387 0.667,0.026 1.337,0.021z"/>
   <path class="fil7 str1" d="M471.88 110.454c0.278,-0.233 -0.279,0.22 0.07,-0.04 0.006,-0.005 0.029,-0.022 0.036,-0.027 0.267,-0.209 0.04,-1.061 -1.113,-0.699 0.334,0.285 0.571,0.619 1.007,0.766z"/>
   <path class="fil7 str1" d="M470.628 103.147l-1.492 0.263c0.422,0.306 0.666,0.452 1.474,0.14l0.171 -0.096c0.011,-0.007 0.029,-0.025 0.042,-0.039l-0.195 -0.268z"/>
   <path class="fil7 str1" d="M456.849 127.276c0.531,-0.31 1.703,-0.441 2.355,-0.578 -0.082,-0.198 -0.147,-0.515 -0.256,-0.651 -0.015,-0.019 -0.062,-0.068 -0.081,-0.081 -0.217,-0.145 -0.278,-0.05 -0.387,-0.014l0.208 0.785 -1.877 0.357c-0.082,0.177 -0.123,0.093 0.038,0.182z"/>
   <path class="fil7 str1" d="M473.4 102.677l-2.214 0.372 0.053 0.353c0.676,-0.183 0.953,-0.132 1.403,-0.541l0.762 0.053 -0.004 -0.237z"/>
   <path class="fil7 str1" d="M453.37 128.791c0.082,-0.109 0.123,-0.19 0.218,-0.333 0.039,-0.059 0.097,-0.136 0.099,-0.138 0.078,-0.117 0.068,-0.066 0.084,-0.148l-1.192 0.228c-0.335,0.169 -0.136,0.07 -0.205,0.192 0.228,0.322 -0.043,0.092 0.996,0.199z"/>
   <path class="fil7 str1" d="M464.354 125.511c0.064,0.017 0.071,0.038 0.209,0.028l0.721 -0.156c0.345,-0.069 0.666,-0.128 1.009,-0.214l-0.123 -0.302c-1.084,0.077 -1.17,0.377 -1.355,0.465 -0.186,0.088 -0.218,0.054 -0.461,0.179z"/>
   <path class="fil7 str1" d="M439.783 103.24l0.263 -0.036c-0.054,-0.35 -0.14,-0.701 -0.223,-1.049 -0.094,-0.391 -0.117,-0.57 -0.489,-0.64l0.449 1.725z"/>
   <path class="fil7 str1" d="M466.368 80.993c0.405,-0.143 1.514,-0.464 1.728,-0.735 -0.209,-0.002 -0.861,0.059 -1.037,0.102 -0.472,0.116 -0.605,0.304 -0.691,0.633z"/>
   <path class="fil7 str1" d="M462.472 104.542l-0.978 0.16 0.09 0.374c0.401,0.051 0.374,0.21 0.917,-0.052 0.1,-0.255 0.074,-0.254 -0.029,-0.482z"/>
   <path class="fil7 str1" d="M457.802 83.253l0.188 0.912c-0.009,0.006 -0.081,0.035 -0.097,0.049 -0.231,0.194 -0.099,0.087 -0.184,0.184l0.342 -0.114 0.045 0.278 0.172 -0.298c0.274,0.037 0.073,-0.151 0.208,0.282 0.085,-0.205 0.061,-0.128 0.032,-0.416 -0.042,-0.035 -0.057,-0.036 -0.129,-0.145 -0.006,-0.009 -0.131,-0.243 -0.132,-0.245 -0.116,-0.271 -0.116,-0.352 -0.092,-0.629l-0.353 0.142z"/>
   <path class="fil7 str1" d="M478.784 106.916c0.134,-0.177 0.048,-0.219 0.048,-0.231 -0.137,-0.169 -0.195,-0.177 -0.407,-0.305 -0.19,-0.114 -0.304,-0.187 -0.497,-0.302 -0.323,-0.193 -0.727,-0.528 -1.068,-0.61 0.199,0.239 0.268,0.303 0.489,0.443l1.177 0.866c0.171,0.123 0.09,0.122 0.258,0.139z"/>
   <path class="fil7 str1" d="M480.583 122l0.303 -0.076c0.022,-0.21 -0.041,-0.564 -0.133,-0.848 -0.119,-0.37 -0.175,-0.337 -0.523,-0.333l0.353 1.257z"/>
   <path class="fil7 str1" d="M453.127 85.362c0.356,0.084 1.129,-0.011 1.42,-0.276l-0.181 -0.214c-0.013,-0.011 -0.042,-0.029 -0.054,-0.038 -0.012,-0.009 -0.038,-0.024 -0.057,-0.036 -0.218,0.092 -0.384,0.176 -0.593,0.265 -0.081,0.035 -0.183,0.07 -0.265,0.111 -0.24,0.12 -0.147,0.053 -0.27,0.188z"/>
   <path class="fil7 str1" d="M456.527 83.809l0.217 0.808c0.025,-0.007 0.15,-0.036 0.171,-0.033 0.161,0.019 0.15,0.028 0.241,0.063 0.025,-0.012 0.095,-0.046 0.109,-0.057 0.138,-0.108 0.095,-0.08 0.15,-0.137l-0.276 0.092 -0.207 -0.908 -0.405 0.172z"/>
   <path class="fil7 str1" d="M480.293 108.096c0.123,0.101 0.09,0.069 0.245,0.179 0.012,0.008 0.142,0.103 0.144,0.104 0.108,0.066 0.067,0.042 0.177,0.087 -0.026,-0.092 -0.083,-0.26 -0.101,-0.342 -0.098,-0.467 -0.074,-0.152 0.011,-0.311 -0.148,-0.125 -0.174,-0.131 -0.352,-0.232 -0.201,-0.114 -0.175,-0.114 -0.392,-0.179 0.146,0.283 0.235,0.395 0.268,0.694z"/>
   <path class="fil7 str1" d="M478.746 79.158l0.144 -1.097 -0.464 0.086 0.034 0.013c-0.01,0.195 -0.051,0.376 -0.011,0.576 0.002,0.006 0.082,0.238 0.083,0.24 0.162,0.272 -0.084,0.063 0.214,0.182z"/>
   <path class="fil7 str1" d="M479.467 79.166c0.168,0.074 0.009,-0.032 0.164,0.187l0.162 0.249 0.06 -0.121c0.002,-0.008 0.034,-0.166 0.038,-0.189 0.021,-0.145 0.022,-0.22 0.049,-0.36l-0.113 -0.111c-0.14,-0.257 -0.108,-0.343 -0.144,-0.63 -0.059,0.087 -0.051,0.038 -0.093,0.165 -0.034,0.102 -0.03,0.146 -0.049,0.244 -0.054,0.277 -0.065,0.294 -0.074,0.566z"/>
   <path class="fil7 str1" d="M479.461 107.396c0.103,0.159 0.182,0.241 0.369,0.368 0.236,0.159 0.294,0.207 0.463,0.332 -0.033,-0.299 -0.122,-0.411 -0.268,-0.694 -0.062,-0.079 0.001,-0.051 -0.108,-0.118 -0.095,-0.059 -0.077,-0.033 -0.139,-0.05l-0.328 0.01c-0.047,0.114 -0.208,-0.103 0.011,0.152z"/>
   <path class="fil7 str1" d="M453.081 129.965c0.028,-0.083 0.035,-0.052 0.048,-0.207 0.002,-0.017 0,-0.317 0,-0.34 -0.299,0.211 -0.197,0.108 -0.54,0.205 -0.438,0.124 -0.251,-0.023 -0.357,0.264 0.203,0.19 -0.034,0.136 0.358,0.074 0.372,-0.06 0.244,-0.18 0.491,0.004z"/>
   <path class="fil7 str1" d="M443.855 107.706l-0.478 0.139c-0.055,0.187 0.069,0.408 0.146,0.753 0.152,-0.088 0.16,-0.324 0.352,-0.599 0.211,-0.301 0.012,-0.09 0.228,-0.233 -0.395,0.212 -0.082,0.023 -0.248,-0.06z"/>
   <path class="fil7 str1" d="M447.611 107.646l0.695 -0.085c0.32,-0.122 -0.139,0.082 0.13,-0.06l0.102 -0.078c-0.128,-0.265 -0.124,-0.219 -0.494,-0.166 -0.368,0.053 -0.493,0.036 -0.433,0.389z"/>
   <path class="fil7" d="M439.313 94.52l0.167 -0.038c0.211,-0.01 0.037,-0.019 0.195,0.012 0.016,0.196 -0.013,0.172 -0.178,0.374 0.149,-0.055 0.28,-0.103 0.409,-0.156 0.032,-0.013 0.18,-0.077 0.2,-0.089 0.134,-0.082 0.075,-0.049 0.14,-0.127l-0.155 -0.056 -0.038 -0.311c-0.136,0.068 -0.239,0.112 -0.377,0.171 -0.073,0.03 -0.133,0.047 -0.203,0.086 -0.129,0.071 -0.105,0.075 -0.16,0.134z"/>
   <path class="fil7 str1" d="M469.92 79.587c0.29,-0.1 0.727,-0.202 0.889,-0.401 -0.3,0.027 -0.159,0.012 -0.463,0.176 -0.052,-0.234 -0.003,-0.201 -0.139,-0.337 -0.123,-0.124 -0.105,-0.086 -0.28,-0.109l-0.031 0.191c0.001,0.023 0.007,0.047 0.009,0.074 0.019,0.278 0.065,0.053 0.015,0.406z"/>
   <path class="fil7 str1" d="M477.793 71.509c0.061,0.259 0.123,0.418 0.229,0.578 0.204,-0.141 0.274,-0.147 0.381,-0.32l-0.125 -0.014 -0.148 -0.498 -0.337 0.254z"/>
   <path class="fil7 str1" d="M468.645 103.544c-0.182,-0.074 -0.468,0.024 -0.728,0.076l0.234 0.457 0.433 -0.051 -0.127 -0.384 0.188 -0.098z"/>
   <path class="fil7 str1" d="M478.784 106.916c0.205,0.24 0.435,0.424 0.677,0.48 -0.219,-0.255 -0.058,-0.038 -0.011,-0.152l0.328 -0.01 -0.946 -0.549c0,0.012 0.086,0.054 -0.048,0.231z"/>
   <path class="fil7 str1" d="M467.636 103.711c-0.163,-0.088 -0.546,0.04 -0.776,0.085 0.34,0.452 -0.012,0.537 0.467,0.538 0.102,-0.18 0.112,0.156 0.061,-0.261 -0.011,-0.092 -0.063,-0.174 -0.09,-0.233l0.338 -0.129z"/>
   <path class="fil7 str1" d="M488.868 120.321c0.212,-0.154 0.531,-0.358 0.613,-0.576l-0.023 -0.095 -0.637 0.171c-0.019,0.13 0.009,0.292 0.047,0.5z"/>
   <path class="fil7 str1" d="M474.332 109.683c-0.119,-0.298 -0.29,-0.377 -0.523,-0.664 -0.059,0.111 -0.081,0.026 -0.05,0.281 0.045,0.375 0.211,0.361 0.307,0.406 0.146,0.067 0.027,0.006 0.187,0.11l0.079 -0.133z"/>
   <path class="fil7" d="M477.926 115.463c-0.177,-0.322 -0.061,-0.35 -0.303,-0.526 -0.162,-0.117 -0.373,-0.151 -0.595,-0.191 0.148,0.22 0.618,0.645 0.898,0.717z"/>
   <polygon class="fil7 str1" points="478.426,78.147 478.89,78.061 478.932,77.593 478.488,77.642 "/>
   <path class="fil7 str2" d="M487.546 113.438l0.081 -0.02 -0.128 -0.392c-0.116,-0.072 -0.356,-0.246 -0.561,-0.011 0.168,0.238 0.032,0.064 0.298,0.249 0.181,0.125 0.118,0.155 0.31,0.174z"/>
   <path class="fil7 str1" d="M488.072 66.763l-0.133 -0.549 -0.824 0.198c0.582,0.184 0.369,-0.036 0.957,0.351z"/>
   <path class="fil7 str1" d="M456.184 128.659c-0.206,-0.133 -0.366,-0.232 -0.669,-0.199 -0.149,0.135 0.023,0.298 0.182,0.352 0.083,0.028 0.174,0.035 0.264,0.01 0.253,-0.072 0.122,-0.017 0.223,-0.163z"/>
   <polygon class="fil7" points="437.921,95.071 437.981,95.475 438.437,95.312 438.361,94.885 "/>
   <path class="fil7 str1" d="M478.559 93.194l0.061 -0.416c-0.431,0.132 -0.604,0.03 -0.53,0.509l0.469 -0.093z"/>
   <polygon class="fil7" points="438.48,94.893 438.864,94.52 438.789,94.237 438.393,94.302 "/>
   <path class="fil7" d="M458.43 90.236c0.301,-0.248 -0.041,-0.092 0.39,-0.2l0.019 -0.347 -0.37 0.05 -0.037 -0.341c-0.074,0.174 -0.06,0.035 -0.049,0.326 0.005,0.143 0.034,0.356 0.047,0.512z"/>
   <polygon class="fil7" points="440.053,94.129 440.091,94.44 440.246,94.496 440.336,94.524 440.644,93.891 "/>
   <path class="fil7 str1" d="M474.254 102.528c0.102,0.052 -0.041,0.11 0.349,0.063 0.154,-0.019 0.187,-0.066 0.285,-0.114 0.02,-0.413 0.134,-0.508 0.085,-0.934 -0.202,0.272 -0.101,0.399 -0.234,0.889l-0.485 0.096z"/>
   <path class="fil7 str1" d="M440.191 99.835l0.167 0.544c0.315,-0.075 0.814,-0.205 1.031,-0.391l-0.91 0.298 -0.184 -0.613c-0.078,-0.171 -0.086,-0.139 -0.115,-0.175l0.011 0.337z"/>
   <path class="fil7 str1" d="M476.596 72.388c0.124,0.193 -0.074,0.097 0.234,0.06 0.134,-0.016 0.264,-0.079 0.386,-0.125l0.067 -0.432 -0.687 0.497z"/>
   <path class="fil7 str1" d="M488.821 121.507c0.27,-0.209 0.022,-0.116 0.397,-0.157 -0.132,-0.332 -0.207,-0.367 -0.145,-0.717 -0.244,0.22 -0.254,0.512 -0.252,0.874z"/>
   <path class="fil7 str1" d="M477.64 71.634l0.079 0.631 0.303 -0.178c-0.106,-0.16 -0.168,-0.319 -0.229,-0.578l-0.153 0.125z"/>
   <path class="fil7 str1" d="M445.575 100.022l-0.084 -0.094c-0.043,-0.084 -0.057,-0.111 -0.088,-0.205 -0.038,-0.117 -0.07,-0.286 -0.102,-0.412l-0.914 0.329 0.856 -0.269 0.52 1.617c-0.068,-0.366 -0.069,-0.586 -0.188,-0.966z"/>
   <path class="fil7" d="M462.622 89.312l0.152 -0.363 0.093 0.175c0.109,-0.175 0.069,-0.089 0.078,-0.366l-0.207 0.03 -0.095 -0.165c-0.04,0.103 -0.049,-0.075 -0.057,0.259 -0.002,0.081 0.029,0.347 0.036,0.43z"/>
   <path class="fil7" d="M477.161 86.577l0.311 -0.057 0.073 -0.356c-0.313,0.066 -0.11,0.077 -0.266,-0.032 -0.053,0.085 -0.053,0.032 -0.089,0.165 -0.034,0.125 -0.021,0.136 -0.029,0.28z"/>
   <path class="fil7 str1" d="M484.212 69.706c-0.082,-0.274 0.011,-0.134 -0.104,-0.117l-0.286 0.018 0.054 0.292 0.3 0.025c0.09,-0.127 0.047,0.018 0.036,-0.218z"/>
   <path class="fil7 str1" d="M476.816 105.442c-0.263,-0.308 -0.412,-0.35 -0.699,-0.481 0.097,0.104 0.138,0.139 0.224,0.231 0.356,0.384 0.072,0.197 0.475,0.25z"/>
   <path class="fil7 str1" d="M470.924 77.51l0.351 -0.174c-0.398,-0.16 -0.059,0.13 -0.062,-0.081 -0.001,-0.054 0.056,0.002 0.042,-0.133 -0.004,-0.042 0.028,-0.054 0.035,-0.083 -0.29,0.207 -0.261,0.19 -0.366,0.471z"/>
   <polygon class="fil7" points="477.188,86.769 477.414,86.769 477.472,86.773 477.472,86.52 477.161,86.577 "/>
   <path class="fil7 str1" d="M471.29 77.039l0.108 -0.057c0.177,-0.043 0.163,0.012 0.087,-0.142l-0.195 0.199z"/>
  </g>
 </g>
</svg>
